<svg width="48" height="40" viewBox="0 0 48 40" fill="none" xmlns="http://www.w3.org/2000/svg">
<path d="M25.3353 39.0699C24.3353 38.0699 27.3353 30.0699 25.0718 20.3051C24.3353 17.5699 29.393 14.3448 34.3102 10.3216C41.3354 4.56995 40.6998 0.965717 42.8353 0.0699982C45.3353 -0.978601 43.0524 10.0699 39.8354 12.07C43.8353 11.5699 44.8353 7.15211 46.3353 7.06995C48.012 6.9781 45.3353 15.0699 41.3353 17.5699C44.3353 18.0699 45.8354 15.6949 47.3354 16.0699C48.8354 16.4449 44.8353 22.5699 39.8353 22.5699C40.9082 23.6428 43.3353 23.7207 43.3353 25.0699C43.3353 27.0699 37.8353 28.5699 35.3353 27.5699C37.3353 31.0699 34.5956 36.0699 32.8353 36.0699C31.0751 36.0699 32.3353 32.5699 29.8354 32.07C29.3354 36.57 26.5459 40.2805 25.3353 39.0699Z" fill="#D9D9D9"/>
<path d="M22.3193 39.0699C23.3194 38.0699 20.3193 30.0699 22.5829 20.3051C23.3193 17.5699 18.2617 14.3448 13.3445 10.3216C6.31931 4.56995 6.95483 0.965717 4.81932 0.0699982C2.31932 -0.978601 4.60228 10.0699 7.81931 12.07C3.81934 11.5699 2.81934 7.15211 1.31934 7.06995C-0.357378 6.9781 2.31934 15.0699 6.31932 17.5699C3.31934 18.0699 1.8193 15.6949 0.319303 16.0699C-1.18069 16.4449 2.81934 22.5699 7.81932 22.5699C6.74648 23.6428 4.31932 23.7207 4.31932 25.0699C4.31934 27.0699 9.81934 28.5699 12.3193 27.5699C10.3193 31.0699 13.0591 36.0699 14.8193 36.0699C16.5796 36.0699 15.3193 32.5699 17.8193 32.07C18.3193 36.57 21.1087 40.2805 22.3193 39.0699Z" fill="#D9D9D9"/>
</svg>
