<svg width="38" height="45" viewBox="0 0 38 45" fill="none" xmlns="http://www.w3.org/2000/svg">
<path fill-rule="evenodd" clip-rule="evenodd" d="M19 0.000839577C19.0664 0.000280464 19.133 0 19.1998 0V0.00336732C30.6109 0.196248 37.2245 8.63911 37.2245 15.9917C37.2245 20.7975 36.7536 21.4115 36.4203 21.846C36.2377 22.084 36.0965 22.2682 36.0965 23.0579C36.0965 23.8378 36.5099 24.7087 36.9515 25.6387C37.7731 27.3692 38.6919 29.3044 37.2245 31.2397C35.4197 33.6198 32.9631 33.4711 31.9604 33.0992C30.3311 32.9752 27.298 33.4711 28.2004 36.4463C29.1028 39.4215 29.0777 42.3967 28.9524 43.5124C29.0777 44.0083 28.426 45 24.8163 45V41.281H21.8083V45H19.1998H18.8002H16.1917V41.281H13.1837V45C9.57403 45 8.92229 44.0083 9.04762 43.5124C8.92229 42.3967 8.89722 39.4215 9.79963 36.4463C10.702 33.4711 7.66893 32.9752 6.03958 33.0992C5.0369 33.4711 2.58033 33.6198 0.77551 31.2397C-0.691934 29.3044 0.226886 27.3692 1.04852 25.6387C1.49006 24.7087 1.90353 23.8378 1.90353 23.0579C1.90353 22.2682 1.76226 22.084 1.5797 21.846C1.24641 21.4115 0.77551 20.7975 0.77551 15.9917C0.77551 8.63911 7.38909 0.196248 18.8002 0.00336732V0C18.867 0 18.9336 0.000280464 19 0.000839577ZM19 25.1657C17.935 26.4962 16.0039 29.0079 15.4397 30.124C15.2816 30.4368 15.1401 30.6674 15.0257 30.8538C14.5961 31.5538 14.5489 31.6307 15.4397 33.0992C16.2231 34.3907 17.819 32.9725 18.8002 31.765V31.2397C18.8617 31.3265 18.9285 31.4175 19 31.5113C19.0715 31.4175 19.1383 31.3265 19.1998 31.2397V31.765C20.181 32.9725 21.7769 34.3907 22.5603 33.0992C23.4511 31.6307 23.4039 31.5538 22.9743 30.8538C22.8599 30.6674 22.7184 30.4368 22.5603 30.124C21.9961 29.0079 20.065 26.4962 19 25.1657ZM4.91157 22.314C4.91157 25.1896 7.26837 27.5207 10.1756 27.5207C13.0829 27.5207 15.4397 25.1896 15.4397 22.314C15.4397 19.4385 13.0829 17.1074 10.1756 17.1074C7.26837 17.1074 4.91157 19.4385 4.91157 22.314ZM33.0884 22.314C33.0884 25.1896 30.7316 27.5207 27.8244 27.5207C24.9171 27.5207 22.5603 25.1896 22.5603 22.314C22.5603 19.4385 24.9171 17.1074 27.8244 17.1074C30.7316 17.1074 33.0884 19.4385 33.0884 22.314Z" fill="#D9D9D9"/>
</svg>
