<svg width="45" height="45" viewBox="0 0 45 45" fill="none" xmlns="http://www.w3.org/2000/svg">
<path d="M4.73685 37.2513L11.3346 30.5358L15 34.2666L8.40226 40.9822L4.73685 37.2513Z" fill="#D9D9D9"/>
<path d="M4.73685 37.2513L11.3346 30.5358L15 34.2666L8.40226 40.9822L4.73685 37.2513Z" fill="#D9D9D9"/>
<path d="M22.8947 36.4047L9.23403 22.5L7.89474 27.1349L18.3412 37.7679L22.8947 36.4047Z" fill="#D9D9D9"/>
<ellipse cx="4.34211" cy="41.3839" rx="2.76316" ry="2.8125" fill="#D9D9D9"/>
<path d="M36.5977 40.9822L30 34.2666L33.6654 30.5358L40.2632 37.2513L36.5977 40.9822Z" fill="#D9D9D9"/>
<path d="M35.0539 1.77165L13.4211 26.8279L18.6428 32.1429L43.2594 10.1237L45 0L35.0539 1.77165Z" fill="#D9D9D9"/>
<path d="M1.75325 10.1772L26.5 32.3127L31.7493 26.9697L10.0022 1.78101L0.003479 0L1.75325 10.1772Z" fill="#D9D9D9"/>
<path d="M35.766 22.5L22.1053 36.4046L26.6588 37.7678L37.1053 27.1348L35.766 22.5Z" fill="#D9D9D9"/>
<ellipse cx="40.6579" cy="41.3839" rx="2.8125" ry="2.76316" transform="rotate(-90 40.6579 41.3839)" fill="#D9D9D9"/>
<rect width="10.96" height="3.65332" rx="1.82666" transform="matrix(0.700822 0.713336 -0.700822 0.713336 3.34979 34.5663)" fill="#D9D9D9"/>
<rect width="10.96" height="3.65332" rx="1.82666" transform="matrix(0.700822 -0.713336 0.700822 0.713336 33.9596 42.3881)" fill="#D9D9D9"/>
</svg>
