<svg width="95" height="45" viewBox="0 0 95 45" fill="none" xmlns="http://www.w3.org/2000/svg">
<path d="M66.2343 9.95656C51.2963 13.5409 49.244 31.0313 50.0851 39.3284C57.756 46.0989 64.7203 44.8045 67.2436 43.311C66.0324 42.1162 66.0661 40.1581 66.2343 39.3284C74.3089 40.5232 80.7013 36.5074 82.8881 34.3501C78.4471 33.9519 75.6546 31.1972 74.8135 29.8697C84.9068 29.4714 90.7945 21.4066 92.4767 17.424C87.632 19.4153 82.3835 18.2537 80.3648 17.424C88.8432 12.2466 93.6543 3.65074 95 0C85.9161 5.47611 84.9068 5.47611 66.2343 9.95656Z" fill="#D9D9D9"/>
<path d="M28.7657 10.4511C43.7037 14.0354 45.756 31.5258 44.9149 39.8229C37.2441 46.5934 30.2797 45.299 27.7564 43.8055C28.9676 42.6107 28.934 40.6526 28.7657 39.8229C20.6912 41.0177 14.2988 37.0019 12.1119 34.8446C16.5529 34.4464 19.3454 31.6917 20.1865 30.3642C10.0932 29.9659 4.20552 21.9011 2.52331 17.9185C7.36806 19.9098 12.6166 18.7482 14.6352 17.9185C6.15688 12.7411 1.34576 4.14525 -3.8147e-06 0.494507C9.08392 5.97061 10.0932 5.97061 28.7657 10.4511Z" fill="#D9D9D9"/>
</svg>
