<svg width="43" height="35" viewBox="0 0 43 35" fill="none" xmlns="http://www.w3.org/2000/svg">
<path d="M22.4 34.1862C21.5158 33.3112 24.1683 26.3112 22.167 17.7669C21.5159 15.3737 25.9875 12.5517 30.335 9.03142C36.5463 3.99871 35.9844 0.845003 37.8725 0.0612484C40.0828 -0.856276 38.0644 8.8112 35.2201 10.5612C38.7566 10.1237 39.6407 6.2581 40.9669 6.1862C42.4494 6.10584 40.0828 13.1862 36.5463 15.3737C39.1987 15.8112 40.5249 13.7331 41.8511 14.0612C43.1773 14.3893 39.6407 19.7487 35.22 19.7487C36.1686 20.6874 38.3145 20.7556 38.3145 21.9362C38.3145 23.6862 33.4517 24.9987 31.2414 24.1237C33.0097 27.1862 30.5874 31.5612 29.031 31.5612C27.4747 31.5612 28.589 28.4987 26.3786 28.0612C25.9366 31.9987 23.4703 35.2455 22.4 34.1862Z" fill="#D9D9D9"/>
<path d="M19.7334 34.1862C20.6176 33.3112 17.9651 26.3112 19.9664 17.7669C20.6176 15.3737 16.1459 12.5517 11.7984 9.03142C5.58716 3.99871 6.14905 0.845003 4.26095 0.0612484C2.0506 -0.856276 4.06906 8.8112 6.91337 10.5612C3.37683 10.1237 2.49269 6.2581 1.16648 6.1862C-0.315972 6.10584 2.05062 13.1862 5.58717 15.3737C2.93477 15.8112 1.60851 13.7331 0.282309 14.0612C-1.0439 14.3893 2.49269 19.7487 6.91338 19.7487C5.96483 20.6874 3.81888 20.7556 3.81889 21.9362C3.8189 23.6862 8.68167 24.9987 10.892 24.1237C9.12374 27.1862 11.5461 31.5612 13.1024 31.5612C14.6587 31.5612 13.5444 28.4987 15.7548 28.0612C16.1968 31.9987 18.6631 35.2455 19.7334 34.1862Z" fill="#D9D9D9"/>
</svg>
