<svg width="29" height="35" viewBox="0 0 29 35" fill="none" xmlns="http://www.w3.org/2000/svg">
<path fill-rule="evenodd" clip-rule="evenodd" d="M14.5 0.000653004C14.5507 0.000218139 14.6015 0 14.6524 0V0.00261902C23.361 0.152637 28.4082 6.71931 28.4082 12.438C28.4082 16.1758 28.0488 16.6534 27.7944 16.9913C27.6551 17.1764 27.5473 17.3197 27.5473 17.9339C27.5473 18.5405 27.8629 19.2179 28.1998 19.9412C28.8269 21.2872 29.5281 22.7923 28.4082 24.2975C27.0308 26.1488 25.156 26.0331 24.3908 25.7438C23.1474 25.6474 20.8327 26.0331 21.5213 28.3471C22.21 30.6612 22.1909 32.9752 22.0952 33.843C22.1909 34.2286 21.6935 35 18.9388 35V32.1074H16.6432V35H14.6524H14.3476H12.3568V32.1074H10.0612V35C7.30649 35 6.80911 34.2286 6.90476 33.843C6.80911 32.9752 6.78998 30.6612 7.47866 28.3471C8.16735 26.0331 5.85261 25.6474 4.60915 25.7438C3.84395 26.0331 1.9692 26.1488 0.591837 24.2975C-0.528055 22.7923 0.17315 21.2872 0.800187 19.9412C1.13715 19.2179 1.45269 18.5405 1.45269 17.9339C1.45269 17.3197 1.34488 17.1764 1.20556 16.9913C0.951208 16.6534 0.591837 16.1758 0.591837 12.438C0.591837 6.71931 5.63905 0.152637 14.3476 0.00261902V0C14.3985 0 14.4493 0.000218139 14.5 0.000653004ZM14.5 19.5733C13.6872 20.6082 12.2135 22.5617 11.7829 23.4298C11.6622 23.6731 11.5543 23.8524 11.467 23.9974C11.1391 24.5419 11.1031 24.6017 11.7829 25.7438C12.3808 26.7483 13.5987 25.6453 14.3476 24.7061V24.2975C14.3944 24.365 14.4454 24.4358 14.5 24.5088C14.5546 24.4358 14.6056 24.365 14.6524 24.2975V24.7061C15.4013 25.6453 16.6192 26.7483 17.2171 25.7438C17.8969 24.6017 17.8609 24.5419 17.533 23.9974L17.533 23.9974C17.4457 23.8524 17.3377 23.673 17.2171 23.4298C16.7865 22.5617 15.3128 20.6082 14.5 19.5733ZM3.7483 17.3554C3.7483 19.5919 5.54692 21.405 7.76562 21.405C9.98432 21.405 11.7829 19.5919 11.7829 17.3554C11.7829 15.1188 9.98432 13.3058 7.76562 13.3058C5.54692 13.3058 3.7483 15.1188 3.7483 17.3554ZM25.2517 17.3554C25.2517 19.5919 23.4531 21.405 21.2344 21.405C19.0157 21.405 17.2171 19.5919 17.2171 17.3554C17.2171 15.1188 19.0157 13.3058 21.2344 13.3058C23.4531 13.3058 25.2517 15.1188 25.2517 17.3554Z" fill="#D9D9D9"/>
</svg>
