<svg width="36" height="35" viewBox="0 0 36 35" fill="none" xmlns="http://www.w3.org/2000/svg">
<path d="M3.78949 28.9732L9.06769 23.75L12 26.6518L6.72182 31.875L3.78949 28.9732Z" fill="#D9D9D9"/>
<path d="M3.78949 28.9732L9.06769 23.75L12 26.6518L6.72182 31.875L3.78949 28.9732Z" fill="#D9D9D9"/>
<path d="M18.3158 28.3147L7.38722 17.5L6.3158 21.1049L14.6729 29.375L18.3158 28.3147Z" fill="#D9D9D9"/>
<ellipse cx="3.47371" cy="32.1875" rx="2.21053" ry="2.1875" fill="#D9D9D9"/>
<path d="M29.2782 31.875L24 26.6518L26.9323 23.75L32.2105 28.9732L29.2782 31.875Z" fill="#D9D9D9"/>
<path d="M28.0431 1.37795L10.7368 20.8661L14.9142 25L34.6075 7.87402L36 0L28.0431 1.37795Z" fill="#D9D9D9"/>
<path d="M1.40256 7.91563L21.2 25.1321L25.3994 20.9764L8.0017 1.38523L0.00274658 0L1.40256 7.91563Z" fill="#D9D9D9"/>
<path d="M28.6128 17.5L17.6842 28.3147L21.3271 29.375L29.6842 21.1049L28.6128 17.5Z" fill="#D9D9D9"/>
<ellipse cx="32.5263" cy="32.1875" rx="2.1875" ry="2.21053" transform="rotate(-90 32.5263 32.1875)" fill="#D9D9D9"/>
<rect width="8.64489" height="2.88163" rx="1.44081" transform="matrix(0.710799 0.703395 -0.710799 0.703395 2.67981 26.8848)" fill="#D9D9D9"/>
<rect width="8.64489" height="2.88163" rx="1.44081" transform="matrix(0.710799 -0.703395 0.710799 0.703395 27.1677 32.9685)" fill="#D9D9D9"/>
</svg>
