<svg width="13" height="8" viewBox="0 0 13 8" fill="none" xmlns="http://www.w3.org/2000/svg">
<path d="M0.32162 1.91596C-0.107207 1.47766 -0.107207 0.76703 0.32162 0.328728C0.750448 -0.109574 1.44571 -0.109574 1.87454 0.328728L7.30976 5.88404C7.73859 6.32234 7.73859 7.03297 7.30976 7.47127C6.88094 7.90958 6.18567 7.90958 5.75684 7.47127L0.32162 1.91596Z" fill="#555555"/>
<path d="M11.1255 0.328727C11.5543 -0.109576 12.2496 -0.109576 12.6784 0.328727C13.1072 0.767029 13.1072 1.47766 12.6784 1.91596L7.24316 7.47127C6.81433 7.90957 6.11906 7.90957 5.69024 7.47127C5.26141 7.03297 5.26141 6.32234 5.69024 5.88404L11.1255 0.328727Z" fill="#555555"/>
</svg>
